<?xml version="1.0" encoding="utf-8"?>
<!-- Generator: Adobe Illustrator 21.1.0, SVG Export Plug-In . SVG Version: 6.00 Build 0)  -->
<svg version="1.1" id="Слой_1" xmlns="http://www.w3.org/2000/svg" xmlns:xlink="http://www.w3.org/1999/xlink" x="0px" y="0px"
	 viewBox="0 0 360.8 172.4" style="enable-background:new 0 0 360.8 172.4;" xml:space="preserve">
<style type="text/css">
	.st0{fill:#0079C1;}
</style>
<g>
	<path class="st0" d="M295.6,165c-1.4,0-2.6-1.1-2.6-2.4c0,0,0-0.1,0-0.1v-40.3V122l0-0.2c0.1-1.2,1.2-2.1,2.5-2.1
		c1.3,0,2.4,0.9,2.5,2.1l0,0.2c0,0,0,0.1,0,0.2v40.3c0,0,0,0.1,0,0.1C298.1,163.9,297,165,295.6,165 M300.4,112.2h-9.6
		c-8.1,0-8.6,6.5-8.6,10.7v38.7c0,4.2,0.5,10.8,8.6,10.8h9.6c8.1,0,8.6-6.5,8.6-10.8V123C308.9,118.8,308.4,112.2,300.4,112.2"/>
</g>
<polygon class="st0" points="120.3,112.2 142.3,112.2 142.3,119.7 131.8,119.7 131.8,172.4 120.3,172.4 "/>
<path class="st0" d="M144,172.4h11.3l1.1-16h5.5l1.1,16h11.3l-6-60.2H150L144,172.4z M156.8,149.8l2-30.1h0.7l2,30.1H156.8z"/>
<g>
	<path class="st0" d="M190.8,151.3v11.3c0,1.6,1.2,2,1.8,2c1.1,0,1.8-0.9,1.8-2v-14c0-1.9-0.3-3.9-4.6-3.9h-4.7v-6.6h4.9
		c3.3,0,4.5-0.8,4.5-4.5v-12c0-1-0.7-2-1.8-2c-0.7,0-1.8,0.4-1.8,2v9.8h-11.6V123c0-4.2,0.5-10.7,8.6-10.7h9.6
		c8.1,0,8.6,6.5,8.6,10.7v9.6c0,6.5-4.4,8.3-7.8,8.2v0.6c7.8-0.2,7.8,6,7.8,8.2v12.1c0,4.2-0.5,10.8-8.6,10.8h-9.6
		c-8.1,0-8.6-6.5-8.6-10.8v-10.3H190.8z"/>
</g>
<polygon class="st0" points="213.6,112.2 240.3,112.2 240.3,172.4 229.5,172.4 229.5,119.7 224.3,119.7 224.3,172.4 213.6,172.4 "/>
<g>
	<path class="st0" d="M248.7,172.4h11.6v-20.5h6.6c8.1,0,9.4-6.5,9.4-10.8V123c0-4.2-1.3-10.7-9.4-10.7h-18.2V172.4z M260.2,145.3
		v-25.6h3c1.2,0,2.1,1.1,2.1,3v19.6c0,1.9-0.9,3-2.1,3H260.2z"/>
</g>
<polygon class="st0" points="345.8,112.2 360.8,112.2 360.8,172.4 349.3,172.4 349.3,134.7 348.9,134.7 342.9,172.4 333.7,172.4 
	327.7,134.7 327.3,134.7 327.3,172.4 315.8,172.4 315.8,112.2 330.8,112.2 338.3,154.5 "/>
<g>
	<path class="st0" d="M95.6,58.2c-0.1,6.1-0.9,12.5-1.8,16.4c0.3-6.6-0.5-16-2-23.3C90.3,44,86,31.8,82.6,26.2
		c-3.2,5.4-7.1,15.9-9.2,25.1c-2.1,9.2-2.1,20.2-2.1,23.6C70.7,72,69.4,62,69.8,52c0.3-8.3,2.3-16.8,3.3-20.7
		c4-13.1,8.6-21.4,9.5-22.7c0.9,1.3,6.6,11.6,9.6,22.4C95.2,41.8,95.8,52.1,95.6,58.2 M82.6,104.9c-1.8-3.4-4.6-9.8-4.8-19.7
		c-0.1-9.6,3.8-17.9,4.9-19.6c1,1.7,4.3,8.9,4.7,18.7C87.7,93.9,84.5,101.5,82.6,104.9 M96.7,31.1C93,15.1,83.9,2.1,82.6,0
		c-2,3-9.3,14.5-13,27.2C65.6,41.4,65,54,66.4,66.4C67.8,78.8,73,91.5,73,91.5c2.8,6.7,7,13.8,9.7,17.4c4-5.2,13.1-20.6,16-40.8
		C100.3,56.9,100.3,47.1,96.7,31.1"/>
	<path class="st0" d="M60.2,112.3v18.9c0,0,0-0.1,0.1-0.1c6.6-6.6,17.3-6.6,23.9,0c6.6,6.6,6.6,17.3,0,23.9c0,0-0.1,0.1-0.1,0.1
		c0,0,0,0,0,0c0,0-0.1,0.1-0.1,0.1c-6.6,6.5-15.2,9.8-23.8,9.8c-8.7,0-17.3-3.3-23.9-9.9c-11.6-11.6-13-29.5-4.1-42.6
		c1.2-1.8,2.6-3.5,4.1-5c6.6-6.6,15.3-9.9,23.9-9.9V52.4C27,52.4,0,79.3,0,112.4c0,33.1,27,60,60.2,60c17.3,0,33-7.3,44-19v-41.2
		H60.2z"/>
</g>
</svg>
